<?xml version="1.0" encoding="UTF-8" standalone="no"?>
<!-- Created with Inkscape (http://www.inkscape.org/) -->

<svg
   xmlns:dc="http://purl.org/dc/elements/1.1/"
   xmlns:cc="http://creativecommons.org/ns#"
   xmlns:rdf="http://www.w3.org/1999/02/22-rdf-syntax-ns#"
   xmlns:svg="http://www.w3.org/2000/svg"
   xmlns="http://www.w3.org/2000/svg"
   xmlns:sodipodi="http://sodipodi.sourceforge.net/DTD/sodipodi-0.dtd"
   xmlns:inkscape="http://www.inkscape.org/namespaces/inkscape"
   width="210mm"
   height="297mm"
   viewBox="0 0 744.09448819 1052.3622047"
   id="svg3959"
   version="1.1"
   inkscape:version="0.91 r13725"
   sodipodi:docname="123svg.svg">
  <defs
     id="defs3961" />
  <sodipodi:namedview
     id="base"
     pagecolor="#ffffff"
     bordercolor="#666666"
     borderopacity="1.0"
     inkscape:pageopacity="0.0"
     inkscape:pageshadow="2"
     inkscape:zoom="0.8859375"
     inkscape:cx="200.60847"
     inkscape:cy="520"
     inkscape:document-units="px"
     inkscape:current-layer="layer1"
     showgrid="false"
     inkscape:window-width="1366"
     inkscape:window-height="747"
     inkscape:window-x="0"
     inkscape:window-y="21"
     inkscape:window-maximized="1" />
  <metadata
     id="metadata3964">
    <rdf:RDF>
      <cc:Work
         rdf:about="">
        <dc:format>image/svg+xml</dc:format>
        <dc:type
           rdf:resource="http://purl.org/dc/dcmitype/StillImage" />
        <dc:title></dc:title>
      </cc:Work>
    </rdf:RDF>
  </metadata>
  <g
     inkscape:label="Layer 1"
     inkscape:groupmode="layer"
     id="layer1">
    <path
       style="fill:#333333"
       d="m 287.91662,321.56006 c -7.88231,-0.037 -17.13225,3.07899 -20.62693,7.44381 -3.40141,4.24834 -4.05446,6.79217 -4.07804,15.87487 -0.0117,4.52647 0.0919,12.26992 0.23187,17.20788 0.21316,7.52148 0.11252,9.2613 -0.62751,10.72382 -0.48584,0.96015 -3.61271,5.11265 -6.94807,9.22762 -7.07643,8.73044 -7.82196,9.98598 -11.90334,20.02899 -1.68955,4.15749 -3.87383,9.09646 -4.8531,10.97427 -1.49494,2.86659 -1.78698,4.01851 -1.82093,7.18367 -0.0349,3.25454 -0.22896,3.97575 -1.41881,5.28195 -0.75801,0.83214 -2.14804,2.51808 -3.08893,3.74695 -1.86889,2.44091 -4.57544,3.84427 -9.79863,5.07833 -6.42753,1.51863 -7.51758,3.08929 -6.14706,8.86246 0.93661,3.94536 0.88874,4.4693 -0.92911,10.0549 -0.60443,1.85718 -0.94903,3.91851 -0.76534,4.58069 0.69257,2.49663 5.01688,4.12987 14.66473,5.53722 3.47103,0.50632 9.64455,2.02124 15.42033,3.78412 5.29761,1.61693 10.94131,3.07924 12.54057,3.2493 3.83198,0.40749 7.26324,-0.77058 9.67704,-3.32202 1.76799,-1.86878 1.97613,-1.94149 7.86258,-2.75648 11.4627,-1.58703 30.49868,-0.66009 31.95626,1.55598 1.41651,2.15362 3.45223,3.91823 5.48872,4.75518 4.74106,1.94848 9.92861,0.81415 15.20957,-3.32362 3.47864,-2.72561 8.75679,-5.74081 19.07191,-10.8967 5.92238,-2.96024 9.01871,-5.5451 9.01871,-7.53107 0,-2.09593 -1.24638,-3.7945 -3.5543,-4.84244 -3.28363,-1.49099 -5.71512,-3.26329 -6.60108,-4.81336 -0.43009,-0.75253 -1.03412,-3.00717 -1.34096,-5.01049 -0.38419,-2.50838 -1.02194,-4.27768 -2.04955,-5.68264 -1.4388,-1.9671 -1.46933,-2.15088 -0.86426,-5.12196 1.12886,-5.54309 0.81249,-12.26588 -0.77832,-16.5535 -2.17437,-5.86046 -6.8828,-12.99669 -20.18101,-30.58801 -3.12492,-4.13375 -5.05041,-7.23881 -5.65413,-9.11774 -0.52211,-1.62494 -1.25539,-7.18376 -1.70743,-12.9358 -0.43593,-5.54711 -1.15923,-11.3436 -1.6069,-12.88248 -3.32344,-11.42453 -8.63486,-16.89922 -18.64872,-19.22111 -1.58589,-0.36773 -3.33084,-0.54407 -5.14983,-0.55259 z m 4.60178,19.49417 c 0.25305,0.0158 0.50549,0.0485 0.75724,0.0986 2.0107,0.39957 4.668,2.3861 5.77086,4.31571 1.03302,1.80738 1.17386,5.54119 0.29998,7.93177 -0.85772,2.3464 -3.31933,4.44755 -4.67799,3.99255 -0.91912,-0.3078 -0.93375,-0.40334 -0.14756,-0.99369 2.33994,-1.75701 2.02783,-6.83144 -0.51239,-8.33734 -2.92455,-1.73374 -5.85681,0.53113 -5.85681,4.52414 0,1.24775 -0.0906,2.26853 -0.20268,2.26853 -0.11207,0 -0.84194,-0.26193 -1.62148,-0.58329 -1.70928,-0.70463 -2.1553,-2.07792 -1.82905,-5.6374 0.39459,-4.30497 4.224,-7.81693 8.01988,-7.57954 z m -20.8134,1.33139 c 3.30147,0 6.06435,3.69023 6.06435,8.10143 0,2.39599 -0.15447,2.73886 -1.58419,3.50298 l -1.58418,0.84666 -0.26431,-2.48989 c -0.29815,-2.80744 -1.61525,-4.47566 -3.5316,-4.47566 -3.36193,-1e-5 -3.93342,5.55537 -0.83019,8.06427 1.54953,1.25276 1.58883,1.37437 0.68426,2.11503 -0.87919,0.71987 -1.06694,0.69661 -2.22307,-0.27791 -5.125,-4.31995 -2.77389,-15.38691 3.26893,-15.38691 z m 8.77385,14.05713 c 0.97397,-0.0343 2.32047,0.3677 5.66062,1.41057 6.81394,2.12746 9.49709,3.45175 9.71108,4.78912 0.13476,0.84214 -1.08604,1.67771 -6.79889,4.65339 -8.57688,4.46751 -9.99087,4.70774 -13.79237,2.35579 -2.72555,-1.68628 -6.31082,-4.95604 -6.31082,-5.75696 0,-0.58428 7.66729,-6.01527 9.82946,-6.96233 0.66562,-0.29155 1.11656,-0.469 1.70092,-0.48958 z m 18.06175,10.14861 c 0.40961,0.0374 0.70685,0.29085 1.2226,0.79173 1.9142,1.85897 11.76091,22.30715 15.58412,32.36211 3.20525,8.42985 3.95615,14.95973 2.58464,22.47365 l -0.63075,3.46258 -2.29442,0 c -1.26204,0 -2.75449,0.30395 -3.31594,0.6754 -1.28148,0.84781 -1.85332,4.28067 -1.90686,11.45414 l -0.0405,5.39342 -2.90732,2.63207 c -6.14632,5.56097 -11.63472,7.95171 -20.77773,9.05312 -5.57623,0.67175 -9.87378,0.78533 -13.63346,0.36031 -1.38252,-0.15629 -2.48214,-0.96673 -5.10768,-3.76795 l -3.34513,-3.56922 1.52421,-0.72063 c 2.16441,-1.0234 2.86453,-2.03627 2.88462,-4.17836 0.0211,-2.2593 -2.06885,-4.32325 -11.11205,-10.97103 -7.39451,-5.43581 -8.80843,-7.42091 -9.15653,-12.86149 -0.32354,-5.05668 0.93324,-10.13336 3.8413,-15.51778 1.23772,-2.29171 3.47122,-7.19808 4.96336,-10.90155 1.49215,-3.70348 3.71971,-8.13034 4.94878,-9.83838 2.92345,-4.06275 4.75252,-8.18352 5.20497,-11.7256 l 0.36484,-2.8599 2.91057,2.40749 c 6.60757,5.46382 8.3469,5.40142 20.11453,-0.72063 2.28025,-1.18629 5.0615,-2.50289 6.18111,-2.92615 0.96707,-0.36558 1.48915,-0.54471 1.89876,-0.50735 z m -57.64709,61.09361 c 1.5932,-0.0138 5.90512,3.95096 8.56308,7.87363 5.06281,7.4718 8.62693,12.3599 11.52876,15.81024 4.96393,5.90217 5.19217,9.07535 0.93074,12.93095 -1.64172,1.48536 -2.34847,1.77786 -4.22236,1.74826 -2.55743,-0.0404 -7.08711,-1.17498 -12.72542,-3.18792 -5.98348,-2.13616 -8.28406,-2.7145 -15.88084,-3.99255 -3.88303,-0.65325 -7.41842,-1.45676 -7.8561,-1.78541 -1.03495,-0.77713 -1.00544,-2.41122 0.10539,-5.86845 0.67894,-2.11303 0.81762,-3.86775 0.56266,-7.11743 -0.41218,-5.25382 -0.24757,-5.44378 5.946,-6.87508 5.36994,-1.24097 6.69318,-2.0974 9.03167,-5.84582 1.92702,-3.08888 2.56798,-3.67792 4.01642,-3.69042 z m 76.35419,2.49476 c 0.33677,-0.005 0.75798,1.10227 0.9356,2.45917 0.81274,6.20877 4.58971,8.19513 11.86603,6.24009 3.14291,-0.84446 6.30119,-3.05896 7.59666,-5.32557 1.17757,-2.06027 2.25109,-1.06751 2.71924,2.51414 0.58404,4.46843 1.98128,6.84199 4.96499,8.4375 4.15857,2.22375 5.28302,3.15653 5.1012,4.23008 -0.11942,0.70511 -2.66427,2.23534 -8.82414,5.30454 -5.36847,2.67492 -10.16396,5.48939 -12.62326,7.40989 -2.18117,1.70332 -5.04288,3.55542 -6.35948,4.11534 -3.03603,1.29119 -4.63865,1.28471 -6.47783,-0.0243 -3.39647,-2.4172 -3.84905,-5.86702 -1.93931,-14.76968 0.86749,-4.04395 1.14372,-7.18345 1.1091,-12.59326 -0.0459,-7.17851 0.1473,-7.97576 1.9312,-7.99802 z"
       id="path3769"
       inkscape:connector-curvature="0"
       inkscape:export-xdpi="154"
       inkscape:export-ydpi="154"
       inkscape:export-filename="/home/vlterno/projects/img/logos/linux_logo.png" />
  </g>
</svg>
